<svg xmlns="http://www.w3.org/2000/svg" viewBox="0 0 64 64">
  <circle cx="32" cy="32" r="30" fill="#25D366"/>
  <path fill="#fff" d="M44.8 19.2C41.4 15.8 36.9 14 32.1 14c-9.9 0-18 8-18 17.9 0 3.2.8 6.3 2.5 9L14 50l9.3-2.5c2.7 1.5 5.7 2.2 8.8 2.2h.1c9.9 0 17.9-8 17.9-17.9 0-4.8-1.9-9.3-5.3-12.6Zm-12.6 27.4c-2.8 0-5.6-.8-8-2.2l-.6-.4-5.5 1.5 1.5-5.3-.4-.6c-1.6-2.5-2.5-5.4-2.5-8.3 0-8.6 7-15.5 15.6-15.5 4.2 0 8.1 1.6 11 4.6 2.9 2.9 4.5 6.8 4.5 11 0 8.5-7 15.5-15.6 15.5Zm8.5-11.6c-.5-.2-2.8-1.4-3.2-1.5-.4-.1-.7-.2-1 .2-.3.5-1.2 1.5-1.5 1.8-.3.3-.5.4-1 .1-2.6-1.3-4.3-2.4-6-5.4-.5-.8.5-.8 1.4-2.6.2-.4.1-.7 0-1-.1-.3-1-2.5-1.4-3.4-.4-.9-.8-.8-1-.8h-.9c-.3 0-.8.1-1.2.6-.4.5-1.6 1.6-1.6 4 0 2.4 1.7 4.7 1.9 5 .2.3 3.3 5 8.1 7 .9.4 1.7.7 2.3.9 1 .3 1.9.3 2.6.2.8-.1 2.8-1.1 3.2-2.2.4-1.1.4-2 .3-2.2-.1-.2-.4-.3-.9-.5Z"/>
</svg>
